# xmcd CD database file
#
# Track frame offsets:
#	150
#	23033
#	64001
#	86017
#	113819
#	137145
#	171531
#	185989
#	212242
#	233385
#	238975
#
# Disc length: 3679 seconds
#
# Revision: 0
# Processed by: cddbd v1.5.2PL0 Copyright (c) Steve Scherf et al.
# Submitted via: CDex 1.51
#
DISCID=9f0e5d0b
DTITLE=Fußballfieber - Die drei Fragezeichen 123
DYEAR=2008
DGENRE=Hörspiel
TTITLE0=Abergläubische Großeltern
TTITLE1=Schock!
TTITLE2=Totenuhr im Wohnzimmer
TTITLE3=Dunkler Punkt in der Vergangenheit
TTITLE4=Herzanfall!
TTITLE5=Verfluchte Grabkammer
TTITLE6=Völlig Desorientiert
TTITLE7=In der Falle
TTITLE8=Der Schreck in den Gliedern
TTITLE9=Im Hexenkessel
TTITLE10=Angst und Abscheu
EXTD=YEAR: 2008
EXTT0=
EXTT1=
EXTT2=
EXTT3=
EXTT4=
EXTT5=
EXTT6=
EXTT7=
EXTT8=
EXTT9=
EXTT10=
PLAYORDER=
